<mxfile host="app.diagrams.net" agent="Mozilla/5.0 (X11; Linux x86_64) AppleWebKit/537.36 (KHTML, like Gecko) Chrome/128.0.0.0 Safari/537.36" version="24.8.0">
  <diagram name="Page-1" id="KgoYQYOyyWXWBF0dz0mT">
    <mxGraphModel dx="657" dy="485" grid="1" gridSize="10" guides="1" tooltips="1" connect="1" arrows="1" fold="1" page="1" pageScale="1" pageWidth="850" pageHeight="1100" math="0" shadow="0">
      <root>
        <mxCell id="0" />
        <mxCell id="1" parent="0" />
        <mxCell id="fPppr7q9K9Kb0jlmJFAS-11" value="" style="rounded=0;whiteSpace=wrap;html=1;" parent="1" vertex="1">
          <mxGeometry x="100" y="230" width="120" height="90" as="geometry" />
        </mxCell>
        <mxCell id="fPppr7q9K9Kb0jlmJFAS-13" value="" style="rounded=0;whiteSpace=wrap;html=1;" parent="1" vertex="1">
          <mxGeometry x="100" y="290" width="120" height="30" as="geometry" />
        </mxCell>
        <mxCell id="fPppr7q9K9Kb0jlmJFAS-14" value="Пользователь" style="text;html=1;align=center;verticalAlign=middle;whiteSpace=wrap;rounded=0;" parent="1" vertex="1">
          <mxGeometry x="100" y="230" width="120" height="60" as="geometry" />
        </mxCell>
        <mxCell id="fPppr7q9K9Kb0jlmJFAS-15" value="" style="endArrow=none;html=1;rounded=0;exitX=0;exitY=0.25;exitDx=0;exitDy=0;entryX=0.125;entryY=0.02;entryDx=0;entryDy=0;entryPerimeter=0;" parent="1" source="fPppr7q9K9Kb0jlmJFAS-14" target="fPppr7q9K9Kb0jlmJFAS-14" edge="1">
          <mxGeometry width="50" height="50" relative="1" as="geometry">
            <mxPoint x="70" y="260" as="sourcePoint" />
            <mxPoint x="120" y="210" as="targetPoint" />
          </mxGeometry>
        </mxCell>
        <mxCell id="fPppr7q9K9Kb0jlmJFAS-44" value="" style="rounded=0;whiteSpace=wrap;html=1;" parent="1" vertex="1">
          <mxGeometry x="640" y="360" width="120" height="90" as="geometry" />
        </mxCell>
        <mxCell id="fPppr7q9K9Kb0jlmJFAS-45" value="А1.1.4" style="rounded=0;whiteSpace=wrap;html=1;" parent="1" vertex="1">
          <mxGeometry x="640" y="420" width="60" height="30" as="geometry" />
        </mxCell>
        <mxCell id="fPppr7q9K9Kb0jlmJFAS-46" value="" style="rounded=0;whiteSpace=wrap;html=1;" parent="1" vertex="1">
          <mxGeometry x="700" y="420" width="60" height="30" as="geometry" />
        </mxCell>
        <mxCell id="fPppr7q9K9Kb0jlmJFAS-50" style="edgeStyle=orthogonalEdgeStyle;rounded=0;orthogonalLoop=1;jettySize=auto;html=1;exitX=1;exitY=0.5;exitDx=0;exitDy=0;endArrow=doubleBlock;endFill=1;" parent="1" source="fPppr7q9K9Kb0jlmJFAS-47" edge="1">
          <mxGeometry relative="1" as="geometry">
            <mxPoint x="860" y="389.7692307692308" as="targetPoint" />
          </mxGeometry>
        </mxCell>
        <mxCell id="fPppr7q9K9Kb0jlmJFAS-51" value="Токен&lt;div&gt;аутентификации&lt;/div&gt;" style="edgeLabel;html=1;align=center;verticalAlign=middle;resizable=0;points=[];" parent="fPppr7q9K9Kb0jlmJFAS-50" vertex="1" connectable="0">
          <mxGeometry x="-0.0798" y="1" relative="1" as="geometry">
            <mxPoint y="-19" as="offset" />
          </mxGeometry>
        </mxCell>
        <mxCell id="fPppr7q9K9Kb0jlmJFAS-47" value="Отправка формы" style="text;html=1;align=center;verticalAlign=middle;whiteSpace=wrap;rounded=0;" parent="1" vertex="1">
          <mxGeometry x="640" y="360" width="120" height="60" as="geometry" />
        </mxCell>
        <mxCell id="fPppr7q9K9Kb0jlmJFAS-48" value="" style="endArrow=none;html=1;rounded=0;exitX=0;exitY=0.25;exitDx=0;exitDy=0;entryX=0.125;entryY=0.02;entryDx=0;entryDy=0;entryPerimeter=0;" parent="1" source="fPppr7q9K9Kb0jlmJFAS-47" target="fPppr7q9K9Kb0jlmJFAS-47" edge="1">
          <mxGeometry width="50" height="50" relative="1" as="geometry">
            <mxPoint x="610" y="390" as="sourcePoint" />
            <mxPoint x="660" y="340" as="targetPoint" />
          </mxGeometry>
        </mxCell>
        <mxCell id="fPppr7q9K9Kb0jlmJFAS-52" value="" style="rounded=0;whiteSpace=wrap;html=1;" parent="1" vertex="1">
          <mxGeometry x="100" y="360" width="120" height="90" as="geometry" />
        </mxCell>
        <mxCell id="fPppr7q9K9Kb0jlmJFAS-53" value="А1.1.1" style="rounded=0;whiteSpace=wrap;html=1;" parent="1" vertex="1">
          <mxGeometry x="100" y="420" width="60" height="30" as="geometry" />
        </mxCell>
        <mxCell id="fPppr7q9K9Kb0jlmJFAS-54" value="" style="rounded=0;whiteSpace=wrap;html=1;" parent="1" vertex="1">
          <mxGeometry x="160" y="420" width="60" height="30" as="geometry" />
        </mxCell>
        <mxCell id="fPppr7q9K9Kb0jlmJFAS-68" style="edgeStyle=orthogonalEdgeStyle;rounded=0;orthogonalLoop=1;jettySize=auto;html=1;exitX=1;exitY=0.5;exitDx=0;exitDy=0;entryX=0;entryY=0.5;entryDx=0;entryDy=0;" parent="1" source="fPppr7q9K9Kb0jlmJFAS-55" edge="1">
          <mxGeometry relative="1" as="geometry">
            <mxPoint x="280" y="390" as="targetPoint" />
          </mxGeometry>
        </mxCell>
        <mxCell id="fPppr7q9K9Kb0jlmJFAS-55" value="Открытие формы аутентификации" style="text;html=1;align=center;verticalAlign=middle;whiteSpace=wrap;rounded=0;" parent="1" vertex="1">
          <mxGeometry x="100" y="360" width="120" height="60" as="geometry" />
        </mxCell>
        <mxCell id="fPppr7q9K9Kb0jlmJFAS-56" value="" style="endArrow=none;html=1;rounded=0;exitX=0;exitY=0.25;exitDx=0;exitDy=0;entryX=0.125;entryY=0.02;entryDx=0;entryDy=0;entryPerimeter=0;" parent="1" source="fPppr7q9K9Kb0jlmJFAS-55" target="fPppr7q9K9Kb0jlmJFAS-55" edge="1">
          <mxGeometry width="50" height="50" relative="1" as="geometry">
            <mxPoint x="70" y="390" as="sourcePoint" />
            <mxPoint x="120" y="340" as="targetPoint" />
          </mxGeometry>
        </mxCell>
        <mxCell id="fPppr7q9K9Kb0jlmJFAS-69" style="edgeStyle=orthogonalEdgeStyle;rounded=0;orthogonalLoop=1;jettySize=auto;html=1;exitX=0.5;exitY=0;exitDx=0;exitDy=0;entryX=0.5;entryY=1;entryDx=0;entryDy=0;startArrow=none;startFill=0;endArrow=none;endFill=0;dashed=1;" parent="1" source="fPppr7q9K9Kb0jlmJFAS-55" target="fPppr7q9K9Kb0jlmJFAS-13" edge="1">
          <mxGeometry relative="1" as="geometry">
            <mxPoint x="276" y="361" as="sourcePoint" />
            <mxPoint x="276" y="321" as="targetPoint" />
          </mxGeometry>
        </mxCell>
        <mxCell id="-wgVbw5N3P-1iWSw_kXJ-1" value="" style="rounded=0;whiteSpace=wrap;html=1;" vertex="1" parent="1">
          <mxGeometry x="280" y="360" width="120" height="90" as="geometry" />
        </mxCell>
        <mxCell id="-wgVbw5N3P-1iWSw_kXJ-2" value="А1.1.2" style="rounded=0;whiteSpace=wrap;html=1;" vertex="1" parent="1">
          <mxGeometry x="280" y="420" width="60" height="30" as="geometry" />
        </mxCell>
        <mxCell id="-wgVbw5N3P-1iWSw_kXJ-3" value="" style="rounded=0;whiteSpace=wrap;html=1;" vertex="1" parent="1">
          <mxGeometry x="340" y="420" width="60" height="30" as="geometry" />
        </mxCell>
        <mxCell id="-wgVbw5N3P-1iWSw_kXJ-4" style="edgeStyle=orthogonalEdgeStyle;rounded=0;orthogonalLoop=1;jettySize=auto;html=1;exitX=1;exitY=0.5;exitDx=0;exitDy=0;entryX=0;entryY=0.5;entryDx=0;entryDy=0;" edge="1" source="-wgVbw5N3P-1iWSw_kXJ-5" parent="1">
          <mxGeometry relative="1" as="geometry">
            <mxPoint x="460" y="390" as="targetPoint" />
          </mxGeometry>
        </mxCell>
        <mxCell id="-wgVbw5N3P-1iWSw_kXJ-5" value="Ввод адреса электронной почты" style="text;html=1;align=center;verticalAlign=middle;whiteSpace=wrap;rounded=0;" vertex="1" parent="1">
          <mxGeometry x="280" y="360" width="120" height="60" as="geometry" />
        </mxCell>
        <mxCell id="-wgVbw5N3P-1iWSw_kXJ-6" value="" style="endArrow=none;html=1;rounded=0;exitX=0;exitY=0.25;exitDx=0;exitDy=0;entryX=0.125;entryY=0.02;entryDx=0;entryDy=0;entryPerimeter=0;" edge="1" source="-wgVbw5N3P-1iWSw_kXJ-5" target="-wgVbw5N3P-1iWSw_kXJ-5" parent="1">
          <mxGeometry width="50" height="50" relative="1" as="geometry">
            <mxPoint x="250" y="390" as="sourcePoint" />
            <mxPoint x="300" y="340" as="targetPoint" />
          </mxGeometry>
        </mxCell>
        <mxCell id="-wgVbw5N3P-1iWSw_kXJ-7" value="" style="rounded=0;whiteSpace=wrap;html=1;" vertex="1" parent="1">
          <mxGeometry x="460" y="360" width="120" height="90" as="geometry" />
        </mxCell>
        <mxCell id="-wgVbw5N3P-1iWSw_kXJ-8" value="А1.1.3" style="rounded=0;whiteSpace=wrap;html=1;" vertex="1" parent="1">
          <mxGeometry x="460" y="420" width="60" height="30" as="geometry" />
        </mxCell>
        <mxCell id="-wgVbw5N3P-1iWSw_kXJ-9" value="" style="rounded=0;whiteSpace=wrap;html=1;" vertex="1" parent="1">
          <mxGeometry x="520" y="420" width="60" height="30" as="geometry" />
        </mxCell>
        <mxCell id="-wgVbw5N3P-1iWSw_kXJ-10" style="edgeStyle=orthogonalEdgeStyle;rounded=0;orthogonalLoop=1;jettySize=auto;html=1;exitX=1;exitY=0.5;exitDx=0;exitDy=0;entryX=0;entryY=0.5;entryDx=0;entryDy=0;" edge="1" source="-wgVbw5N3P-1iWSw_kXJ-11" parent="1">
          <mxGeometry relative="1" as="geometry">
            <mxPoint x="640" y="390" as="targetPoint" />
          </mxGeometry>
        </mxCell>
        <mxCell id="-wgVbw5N3P-1iWSw_kXJ-11" value="Ввод пароля" style="text;html=1;align=center;verticalAlign=middle;whiteSpace=wrap;rounded=0;" vertex="1" parent="1">
          <mxGeometry x="460" y="360" width="120" height="60" as="geometry" />
        </mxCell>
        <mxCell id="-wgVbw5N3P-1iWSw_kXJ-12" value="" style="endArrow=none;html=1;rounded=0;exitX=0;exitY=0.25;exitDx=0;exitDy=0;entryX=0.125;entryY=0.02;entryDx=0;entryDy=0;entryPerimeter=0;" edge="1" source="-wgVbw5N3P-1iWSw_kXJ-11" target="-wgVbw5N3P-1iWSw_kXJ-11" parent="1">
          <mxGeometry width="50" height="50" relative="1" as="geometry">
            <mxPoint x="430" y="390" as="sourcePoint" />
            <mxPoint x="480" y="340" as="targetPoint" />
          </mxGeometry>
        </mxCell>
      </root>
    </mxGraphModel>
  </diagram>
</mxfile>
